<svg width="300" height="149" version="1.1" viewBox="0 0 79.375 39.408" xmlns="http://www.w3.org/2000/svg">
 <g transform="translate(-49.515 -85.284)">
  <g fill-rule="evenodd">
   <g transform="matrix(.26458 0 0 .26458 49.515 85.269)" fill="#ffffff">
    <path d="m29.097 108.83c-1.552-1.9522-3.6506-4.5877-8.3749-4.5877-5.7492 0-9.7024 4.451-9.7024 12.279 0 7.7599 4.5779 11.537 9.39 11.537 4.4998 0 7.2915-2.5573 8.6873-3.9141zm-25.291 28.131c1.0834 1.3567 1.7765 2.2352 2.5574 2.9771 2.0205 1.757 5.4173 3.4847 9.761 3.5725 5.3294 0.10766 8.1504-2.1767 9.3119-3.1918 3.797-3.2992 3.7385-8.0722 3.6604-12.26-0.62474 0.67362-1.2396 1.2787-1.9424 1.8254-2.4793 2.0205-6.5984 3.6408-10.864 3.6408-7.8282 0-16.291-5.7297-16.291-17.004 0-10.727 7.3695-17.677 17.15-17.677 7.2133 0 10.317 3.4456 11.947 5.1928v-3.7775h10.395v29.624c-0.07791 4.451-0.07791 10.005-4.8121 13.958-4.7731 3.9922-10.034 5.1538-16.476 5.1538-6.1201 0-10.288-2.1767-13.158-4.6755-2.5671-2.2256-3.2601-4.7243-3.7287-6.3446z"/>
    <path d="m92.046 119.08c-2.0206-0.67361-4.0313-1.2787-6.6667-1.2787-4.5779 0-8.6189 2.0888-8.6189 6.4715 0 2.9771 1.9424 6.1396 7.1352 6.1396 3.6506 0 6.1299-1.347 8.1504-2.4988zm10.015 15.862h-10.015v-3.9141c-1.7082 1.552-5.5833 4.9195-12.953 4.9195-8.0723 0-13.187-4.8609-13.187-11.059 0-7.9649 7.5159-12.416 16.75-12.416 3.8068 0 6.2861 0.67362 9.3901 1.4837-0.07792-1.757-0.23445-3.5823-1.0835-5.2611-1.8643-3.6506-6.286-4.5193-9.2338-4.5193-6.5984 0-9.39 3.2992-10.942 5.1245l-2.6355-1.1518c1.7082-3.2992 4.8121-9.2436 16.603-9.2436 6.7546 0 11.098 1.9619 13.343 3.9825 3.8849 3.4456 3.9629 8.0332 3.9629 11.206z"/>
    <path d="m147.04 134.93h-10.395v-22.401c0-1.142 0-2.3524-0.39029-3.5042-0.61482-1.9522-2.5573-4.0508-6.286-4.0508-4.2656 0-6.8229 2.4988-8.6092 4.2558v25.701h-10.317v-34.544h10.317v4.5193c2.0205-2.0205 5.4368-5.5247 12.962-5.5247 4.1093 0 7.4476 1.2787 9.5364 3.1625 2.9478 2.7038 3.1821 6.1494 3.1821 9.0484z"/>
    <path d="m166.66 126.98c1.474 1.552 3.797 3.9825 8.2187 3.9825 4.041 0 10.093-2.3621 10.093-13.704 0-2.2256-0.23446-5.3295-1.7862-8.0235-1.552-2.7721-4.1191-4.7243-8.0723-4.7243-5.9737 0-8.453 4.451-8.453 4.5193zm-10.405-39.678h10.405v17.004c1.552-1.7472 4.7243-5.3295 12.26-5.3295 10.62 0 16.906 7.6233 16.906 18.36 0 13.89-9.8488 19.151-17.609 19.151-6.7546 0-10.239-3.7091-11.557-5.1245v3.5823h-10.405z"/>
    <path d="m203.11 100.39h10.317v34.544h-10.317z"/>
    <path d="m247.1 119.08c-2.0205-0.67361-4.0312-1.2787-6.6765-1.2787-4.5681 0-8.6091 2.0888-8.6091 6.4715 0 2.9771 1.9424 6.1396 7.1352 6.1396 3.6506 0 6.1299-1.347 8.1504-2.4988zm10.015 15.862h-10.015v-3.9141c-1.7081 1.552-5.5833 4.9195-12.962 4.9195-8.0625 0-13.187-4.8609-13.187-11.059 0-7.9649 7.5257-12.416 16.76-12.416 3.8067 0 6.2861 0.67362 9.39 1.4837-0.0779-1.757-0.23445-3.5823-1.0834-5.2611-1.8643-3.6506-6.286-4.5193-9.2338-4.5193-6.5984 0-9.3901 3.2992-10.942 5.1245l-2.6354-1.1518c1.6984-3.2992 4.8024-9.2436 16.603-9.2436 6.7448 0 11.088 1.9619 13.343 3.9825 3.8751 3.4456 3.9629 8.0332 3.9629 11.206z"/>
    <path d="m58.312 118.8v4.2557c0.05667 3.4066-0.16575 6.1787 0.73205 7.7502 0.34141 0.60491 1.386 1.2202 4.0215 1.3178v-0.0283 2.8112l-0.09775 7e-3c-5.0561 0-8.5896 0.26349-10.766-0.81995-2.2841-1.142-3.8068-2.8209-4.0606-6.4227-0.18558-2.489-0.10766-8.8044-0.10766-8.8044v-31.557h10.278z"/>
    <path d="m208.22 96.652c3.2113 0 5.8077-2.5964 5.8077-5.798 0-3.2015-2.5964-5.8077-5.8077-5.8077-3.2016 0-5.798 2.6062-5.798 5.8077 0 3.2016 2.5964 5.798 5.798 5.798"/>
   </g>
   <path d="m122.45 86.4 0.0362-0.04648h2e-3c-1.4488-0.68438-3.0681-1.0692-4.7752-1.0692-6.1724 0-11.175 5.0025-11.175 11.172 0 6.1698 5.0025 11.175 11.175 11.175 6.1698 0 11.172-5.0051 11.172-11.175 0-2.0273-0.55526-4.3181-1.4953-5.5732 0.57074 1.1777 0.90131 2.5025 0.90131 3.8997 0 4.9353-4.0004 8.9383-8.9383 8.9383s-8.9383-4.003-8.9383-8.9383c0-4.9379 4.0004-8.9383 8.9383-8.9383 1.095 0 2.1384 0.19628 3.1068 0.55526z" fill="#ee7817" stroke-width=".26458"/>
   <path d="m123.96 97.97c2.4173 0 4.3749-1.9602 4.3749-4.3775 0-2.4147-1.9576-4.3749-4.3749-4.3749-2.4173 0-4.3749 1.9602-4.3749 4.3749 0 2.4173 1.9576 4.3775 4.3749 4.3775" fill="#fab500" stroke-width=".26458"/>
  </g>
 </g>
</svg>
