<?xml version="1.0" encoding="UTF-8" standalone="no"?>
<svg width="141px" height="82px" viewBox="0 0 141 82" version="1.1" xmlns="http://www.w3.org/2000/svg" xmlns:xlink="http://www.w3.org/1999/xlink">
    <!-- Generator: Sketch 3.7.2 (28276) - http://www.bohemiancoding.com/sketch -->
    <title>logo-footer</title>
    <desc>Created with Sketch.</desc>
    <defs>
        <polygon id="path-1" points="39.7170318 0.311517448 0.0521159804 0.311517448 0.0521159804 39.5503964 39.7170318 39.5503964"></polygon>
    </defs>
    <g id="Symbols" stroke="none" stroke-width="1" fill="none" fill-rule="evenodd">
        <g id="Desktop/Footer" transform="translate(-201.000000, -424.000000)">
            <g id="logo-footer" transform="translate(201.000000, 424.000000)">
                <g id="Group-3" transform="translate(101.042937, 0.046016)">
                    <mask id="mask-2" fill="white">
                        <use xlink:href="#path-1"></use>
                    </mask>
                    <g id="Clip-2"></g>
                    <path d="M38.5043915,13.4666289 C38.8294361,15.0014195 39.0433544,15.8501008 39.3711772,17.3835136 C39.401737,17.5309307 39.5211978,18.0682451 39.6309351,18.8259963 C39.7240035,19.6237016 39.7781776,20.2850117 39.5975972,21.556656 C39.4350749,22.6671059 39.3197813,23.1010906 39.1711497,23.8726191 C37.6862235,31.5589715 31.2964568,37.8207516 23.5148322,39.2177692 C12.9064304,41.1217913 3.01201555,34.6809063 0.551955367,24.2680275 C-1.8747669,13.995677 4.78309219,3.35133961 15.1400706,0.963734549 C15.9568495,0.77498562 16.7930754,0.670278185 17.6195779,0.52010568 C17.7932128,0.49668428 17.9890731,0.47326288 18.3669028,0.415398245 C19.7073647,0.26384801 20.5130309,0.28864714 21.7993188,0.415398245 C22.6299884,0.514594762 23.2981358,0.642723597 24.01629,0.859027114 C25.3887008,1.27372367 26.7388862,1.76557306 28.0974062,2.22435696 C28.0793482,2.24640063 28.0626792,2.26706657 28.0446212,2.28773251 C26.7055483,2.01631981 25.3789772,1.61402283 24.0274026,1.49691583 C19.3212005,1.09186338 15.2123027,2.54812337 11.8118356,5.78578747 C8.31413284,9.11575944 6.7278038,13.2530809 6.98339447,18.0475792 C7.36539139,25.217283 12.968939,31.3357793 20.1338122,32.4696506 C28.4849594,33.7922708 36.2513042,28.5996087 38.1043365,20.3966078 C38.3779852,19.1883391 38.3627053,17.9166949 38.4807771,16.673983 C38.4891116,15.6048649 38.496057,14.5357469 38.5043915,13.4666289" id="Fill-1" fill="#F47A33" mask="url(#mask-2)"></path>
                </g>
                <path d="M139.547328,13.5126451 C139.538994,14.5817631 139.532048,15.6508811 139.523714,16.7199991 C139.345912,17.1718944 139.177833,17.6265451 138.987529,18.0729294 C137.684572,21.1135782 134.32161,23.069954 131.112836,22.6593906 C127.502618,22.1964735 124.777244,19.6449187 124.253561,16.2364161 C123.645144,12.2740663 126.041306,8.6134393 129.91545,7.58565317 C133.725695,6.57439978 137.666514,8.58175153 139.133383,12.2850882 C139.291738,12.6860074 139.409809,13.1034594 139.547328,13.5126451" id="Fill-4" fill="#FEB537"></path>
                <path d="M100.439734,42.5422303 C100.434177,44.0687545 99.2159543,45.2494686 97.6643523,45.2329358 C96.1933169,45.2177808 94.9987083,44.020534 94.9848175,42.5449858 C94.9709267,41.041883 96.2183203,39.8088152 97.7435298,39.8184593 C99.2437359,39.8281034 100.44529,41.0432607 100.439734,42.5422303 Z M0.516283934,52.8633524 C0.594072399,52.5795401 0.616297674,52.4596777 0.664915464,52.2433741 C1.47197078,48.6640331 4.50849905,46.2640285 8.20484018,46.2213189 C10.414866,46.1965198 12.3526322,46.7779216 13.9681319,48.5331488 L13.9681319,46.9225832 L18.8674161,46.9225832 C18.8771397,46.9763146 18.900754,47.0438234 18.900754,47.1099544 C18.8979759,52.0105379 18.917423,56.9124991 18.8729724,61.8130826 C18.8549144,63.8479889 18.3270641,65.7272118 16.6560012,67.1104522 C14.6710063,68.7540833 12.3415196,69.3809502 9.80367094,69.4691249 C7.77283639,69.5393891 5.83229202,69.2858869 4.0528809,68.2346794 C2.65268854,67.406664 1.58448624,66.3141246 1.14275889,64.7104475 C1.12331177,64.6401833 1.10525374,64.5699191 1.09275202,64.4982772 C1.08580662,64.463834 1.09136294,64.428013 1.09136294,64.3494824 C1.44418919,64.2006877 1.80812807,64.046382 2.22068475,63.8727881 C2.4498829,64.1510894 2.67491382,64.4293907 2.90689013,64.7035589 C5.07941081,67.2868015 9.64948309,67.6794544 12.2373386,65.5053974 C12.9082641,64.9405283 13.3847185,64.2489082 13.6597562,63.4153819 C13.9611865,62.4978141 14.1292652,60.8624493 13.9848009,59.9283488 C13.8445038,60.0468335 13.725043,60.1377636 13.6139166,60.2383379 C10.0120329,63.4980457 4.20429059,62.8656679 1.6761655,58.8978072 C1.21638011,58.175877 0.980236561,57.350617 0.681584421,56.5598004 C0.614908595,56.3242086 0.564901725,56.1368374 0.506560376,55.9274226 C0.273194984,54.9891888 0.300976578,53.9545141 0.516283934,52.8633524 Z M78.3280848,61.3968705 L78.3280848,62.9302834 L73.4440805,62.9302834 L73.4440805,40.9183006 L78.2989141,40.9183006 L78.2989141,48.6363408 C78.4322657,48.5481661 78.4933853,48.5219892 78.5350576,48.4779019 C80.8923259,46.048965 83.7871681,45.8161287 86.8028601,46.7240524 C89.7115931,47.6002883 91.209021,49.8253213 91.7438167,52.7075312 C92.1980458,55.14749 91.9744039,57.5185623 90.756181,59.7325734 C88.4780903,63.8712726 82.0522075,65.2655347 78.3280848,61.3968705 Z M43.3802281,53.0658786 C43.5913682,50.9551971 42.2606298,49.2385463 39.9714265,48.8514043 C37.5669295,48.4449742 35.4305249,48.9216685 33.7497384,50.8174242 C33.6455574,50.9345312 33.3788541,50.9799963 33.2079973,50.9496862 C32.9635193,50.9069766 32.7357102,50.7650705 32.5037339,50.6617408 C32.4384472,50.6328085 32.3787167,50.5914766 32.2870375,50.5391229 C33.1093727,48.7232755 34.4012168,47.4061662 36.3195359,46.801343 C38.9254494,45.9802163 41.549421,46.0256813 44.1358875,46.8895177 C46.5445517,47.6954894 47.9891946,49.3873411 48.065594,51.9127191 C48.1781095,55.5733461 48.0947647,59.2394841 48.0947647,62.9331766 L43.4455148,62.9331766 L43.4455148,61.2165258 C43.1774225,61.4218074 43.0010093,61.5637136 42.8176508,61.6959756 C40.3186964,63.511823 37.5683186,63.9375413 34.6609747,62.9676198 C32.7120959,62.3173316 31.4716477,60.9175585 31.2466168,58.8330539 C31.0229749,56.7526825 31.8730917,55.1131845 33.620554,53.9614027 C35.3444019,52.8261537 37.2988371,52.452789 39.3227262,52.5574964 C40.6812462,52.6277606 42.0300426,52.8895292 43.3802281,53.0658786 Z M104.714487,50.5395362 C105.693789,48.4095665 107.292619,47.0552585 109.576267,46.5634091 C112.134951,46.0123174 114.670022,46.0880925 117.113413,47.1062345 C119.266487,48.0045141 120.443037,49.6825885 120.505546,51.9572197 C120.60417,55.5682485 120.541662,59.1847882 120.547218,62.7985724 C120.547218,62.8330157 120.524993,62.8674589 120.502768,62.9322122 L115.859074,62.9322122 L115.859074,61.207295 C114.715861,62.1882383 113.5407,62.8550593 112.180791,63.1691816 C110.509728,63.5549459 108.840054,63.600411 107.206497,63.0162537 C105.181218,62.291568 103.876872,60.9248604 103.674067,58.7342707 C103.485152,56.6897203 104.339436,55.0943096 106.046615,53.9659492 C107.753794,52.8375888 109.690171,52.4656019 111.697391,52.5551543 C112.87672,52.6088857 114.044936,52.8706543 115.217319,53.045626 C115.410401,53.0745583 115.599316,53.1365561 115.796565,53.1847766 C115.982702,50.6717982 114.440824,48.9758133 111.773791,48.7498657 C109.594325,48.5652499 107.671838,49.1039421 106.203581,50.8178375 C106.020222,51.0313856 105.859089,51.100272 105.599331,50.9473441 C105.396526,50.8302371 105.164549,50.7613506 104.946464,50.667665 C104.881177,50.6387327 104.820058,50.5987785 104.714487,50.5395362 Z M57.138646,62.9366209 L52.329652,62.9366209 L52.329652,46.9783812 L57.1233661,46.9783812 L57.1233661,48.8920474 C57.1719839,48.9223574 57.2192126,48.9526675 57.2664413,48.9829775 C57.4136838,48.8093836 57.5373119,48.6096128 57.7081687,48.4649512 C60.25713,46.2908942 63.1422485,45.9257959 66.2204492,47.0624227 C68.0859833,47.7512874 69.0638954,49.2227024 69.1000115,51.1790782 C69.1625201,54.6647336 69.126404,58.1517667 69.1319603,61.6387998 C69.1333494,62.0548741 69.1333494,62.4709484 69.1333494,62.9242214 L64.2618468,62.9242214 L64.2618468,62.3069986 C64.2618468,59.0197362 64.2062836,55.7324739 64.2785158,52.4465892 C64.3424134,49.5437134 62.086548,48.7074316 60.0029284,49.2337243 C58.916668,49.5078924 58.0665513,50.1554252 57.3039465,50.9269537 C57.1775402,51.0537048 57.1455914,51.3168511 57.1455914,51.5179996 C57.1358678,55.1124956 57.138646,58.7083694 57.138646,62.3042431 L57.138646,62.9366209 Z M22.8587978,40.8952926 L27.6927952,40.8952926 L27.6927952,41.4670503 C27.6927952,46.5481163 27.690017,51.6278046 27.6955734,56.7088707 C27.6983515,57.7972769 27.688628,58.8884386 27.7733618,59.9699562 C27.8719865,61.2140458 28.2317581,61.5075022 29.5083224,61.6039433 C29.6166706,61.6122096 29.7236297,61.620476 29.8694831,61.6314979 L29.8694831,62.8562993 C28.4679017,62.8562993 27.0663202,62.9968277 25.7064112,62.8232338 C23.7936484,62.5793757 22.8851903,61.2085349 22.8782449,58.9201264 C22.8657432,54.4562831 22.8643541,49.9924398 22.8587978,45.5285966 C22.8574087,44.1673999 22.8587978,42.8062033 22.8587978,41.4450066 L22.8587978,40.8952926 Z M95.3561185,62.9340032 L100.126218,62.9340032 L100.126218,46.9606085 L95.3561185,46.9606085 L95.3561185,62.9340032 Z M29.9367146,81.4668059 L29.9367146,76.6929735 C29.9589399,76.1225935 29.8130865,75.6858533 29.4963763,75.3841306 C29.1796661,75.0810301 28.8032255,74.9294799 28.3670545,74.9294799 C28.1364673,74.9294799 27.9156036,74.9708117 27.7016853,75.0493423 C27.4891561,75.1292506 27.3030194,75.2463576 27.1418862,75.4006633 C26.9807529,75.554969 26.8515685,75.7464734 26.7529439,75.9737987 C26.6557083,76.2025018 26.6070905,76.4587595 26.6070905,76.7439495 L26.6070905,81.4668059 L24.1914809,81.4668059 L24.1914809,75.7685171 C24.1914809,75.5632354 24.1887027,75.3923969 24.1831464,75.2560017 C24.176201,75.1182288 24.1484194,75.0066327 24.0970234,74.9212135 C24.0442384,74.8357943 23.9636718,74.7765519 23.8553236,74.7421087 C23.7455863,74.7076654 23.5941766,74.6911327 23.3983163,74.6911327 L23.3983163,73.2018072 C23.6747432,73.1563421 23.9872861,73.1191434 24.3373342,73.0915888 C24.6887714,73.0626565 25.0193724,73.0764338 25.3305262,73.1342984 C25.640291,73.1907853 25.9028271,73.3078923 26.1153563,73.4842417 C26.3278855,73.6619688 26.4334555,73.9375147 26.4334555,74.3150125 C26.5487491,74.0752876 26.7071042,73.8713837 26.9085208,73.7060561 C27.1099373,73.5421063 27.330801,73.4112221 27.5725009,73.3134033 C27.8142008,73.2169622 28.0670133,73.1453203 28.3323275,73.0998552 C28.5962526,73.0543901 28.8490652,73.0309687 29.090765,73.0309687 C29.6783457,73.0309687 30.1784144,73.1246543 30.5923602,73.3134033 C31.006306,73.5021522 31.3452414,73.7611653 31.6105556,74.0918204 C31.8744808,74.4224754 32.0675629,74.8109951 32.1870237,75.2560017 C32.3078737,75.7010083 32.3689932,76.1790804 32.3689932,76.6929735 L32.3689932,81.4668059 L29.9367146,81.4668059 Z M42.4103726,73.2193043 L42.4103726,78.9851019 C42.4103726,79.3736216 42.4464887,79.6422788 42.521499,79.7896959 C42.5965093,79.9384907 42.8187621,80.0018662 43.1868682,79.9784448 L43.2035372,81.4663926 C42.904885,81.535279 42.5798404,81.586255 42.2284032,81.6206983 C41.8783551,81.6551415 41.5505323,81.637231 41.2449348,81.5697223 C40.9407263,81.5008358 40.6851356,81.3671961 40.4781628,81.1674253 C40.2711899,80.9676545 40.1670089,80.6686872 40.1670089,80.2691457 C40.0517153,80.5088706 39.8975274,80.7113969 39.7016672,80.8767244 C39.5058069,81.0420519 39.2904996,81.1784471 39.054356,81.2872877 C38.8182125,81.3961284 38.5654,81.4719035 38.2959185,81.5173686 C38.025048,81.5642114 37.7625119,81.586255 37.5110885,81.586255 C36.9123951,81.586255 36.4151046,81.4925694 36.0178278,81.3038205 C35.620551,81.1164493 35.3052299,80.8601916 35.0690863,80.5336698 C34.8329428,80.2085256 34.6662532,79.8241391 34.5690176,79.3791325 C34.470393,78.9341259 34.4217752,78.4560538 34.4217752,77.9421608 L34.4217752,73.2193043 L36.8540538,73.2193043 L36.8540538,77.9421608 C36.8318285,78.5235626 36.9582347,78.9630582 37.2346616,79.2592701 C37.5110885,79.5568596 37.8611366,79.7042767 38.287584,79.7042767 C38.7695947,79.7166762 39.175206,79.5568596 39.5030288,79.2248268 C39.8308516,78.8941718 39.994763,78.4491652 39.994763,77.889807 L39.994763,73.2193043 L42.4103726,73.2193043 Z M48.1200459,73.2361126 L50.8287514,73.2361126 L50.8287514,75.0326718 L48.1200459,75.0326718 L48.1200459,78.2317595 C48.1200459,78.667122 48.2006125,79.0005325 48.3617458,79.2333688 C48.522879,79.4675827 48.7381864,79.6273994 49.0090569,79.7128186 C49.2785384,79.7982378 49.5799687,79.8216592 49.9147369,79.7817051 C50.2481161,79.7417509 50.5870515,79.6590871 50.9315433,79.5337138 L51.1565742,81.3468057 C50.4425872,81.5410655 49.75916,81.6485284 49.1035144,81.6719498 C48.4478687,81.6939935 47.8727897,81.5975524 47.3782774,81.3812489 C46.883765,81.1649454 46.4892663,80.805358 46.1961705,80.3024868 C45.9030747,79.8009933 45.7558322,79.1286613 45.7558322,78.2841132 L45.7558322,75.0326718 L44.1861722,74.8783661 L44.1861722,73.2361126 L45.9280781,73.2361126 L46.187836,70.6694028 L48.1200459,70.6694028 L48.1200459,73.2361126 Z M55.3136731,74.3655752 C55.4859189,73.8861254 55.7887383,73.5334267 56.219353,73.3047236 C56.6513568,73.0773982 57.125033,72.9630467 57.6431598,72.9630467 C57.9640372,72.9520248 58.2807473,72.991979 58.5919012,73.0829091 C58.9030551,73.1738393 59.1780928,73.3102345 59.4197927,73.4920948 L58.884997,75.4953133 C58.4015973,75.1756801 57.8848596,75.0268853 57.3320059,75.0503067 C57.0680807,75.0503067 56.8166573,75.0930163 56.5819028,75.1784356 C56.3471484,75.2638548 56.1387864,75.3892282 55.9609842,75.5545557 C55.7817929,75.7198832 55.6414959,75.9224094 55.538704,76.1621344 C55.434523,76.4018593 55.3831271,76.6815383 55.3831271,76.9997938 L55.3831271,81.4663926 L53.0203024,81.4663926 L53.0203024,75.6482413 C53.0203024,75.3065644 52.977241,75.0392849 52.889729,74.845025 C52.803606,74.6507652 52.5702406,74.5818787 52.1910219,74.6383656 L52.1910219,73.1683284 C52.489674,73.0994419 52.8161077,73.0539768 53.1661558,73.0305554 C53.5162039,73.0085117 53.8440267,73.0346886 54.1496243,73.1077083 C54.4538327,73.1821057 54.7149797,73.3185009 54.9344543,73.5182716 C55.1525398,73.7180424 55.2803352,74.0004769 55.3136731,74.3655752 Z M60.7152485,81.4672192 L63.129469,81.4672192 L63.129469,73.322083 L60.7152485,73.322083 L60.7152485,81.4672192 Z M60.5068865,70.8407923 C60.5068865,70.6010674 60.5471698,70.3957857 60.6277364,70.2249473 C60.7083031,70.0541088 60.8180404,69.910825 60.9555593,69.7964734 C61.0944672,69.6821219 61.2486551,69.5994581 61.420901,69.5484821 C61.5945359,69.4975061 61.7723381,69.4713293 61.9570857,69.4713293 C62.3015775,69.4837288 62.6168986,69.6022136 62.9058272,69.8309166 C63.1933667,70.0596197 63.3364419,70.3957857 63.3364419,70.8407923 C63.3364419,71.2968207 63.1961448,71.6398754 62.9141617,71.8672007 C62.6321785,72.0959038 62.3182465,72.2157662 61.9737547,72.2267881 C61.7903962,72.2267881 61.6112049,72.2006112 61.438959,72.1496352 C61.2667131,72.0986592 61.1111362,72.01324 60.9736173,71.8933776 C60.8360984,71.7735151 60.7235829,71.6274758 60.63746,71.4566373 C60.549948,71.2857989 60.5068865,71.0805172 60.5068865,70.8407923 Z M68.5641045,73.2361126 L71.27281,73.2361126 L71.27281,75.0326718 L68.5641045,75.0326718 L68.5641045,78.2317595 C68.5641045,78.667122 68.6432821,79.0005325 68.8058044,79.2333688 C68.9669376,79.4675827 69.182245,79.6273994 69.4531155,79.7128186 C69.722597,79.7982378 70.0240273,79.8216592 70.3587955,79.7817051 C70.6921746,79.7417509 71.0311101,79.6590871 71.3756019,79.5337138 L71.6006328,81.3468057 C70.8866458,81.5410655 70.2032186,81.6485284 69.5475729,81.6719498 C68.8919273,81.6939935 68.3168483,81.5975524 67.8223359,81.3812489 C67.3278236,81.1649454 66.9333249,80.805358 66.6402291,80.3024868 C66.3471333,79.8009933 66.1998908,79.1286613 66.1998908,78.2841132 L66.1998908,75.0326718 L64.6302307,74.8783661 L64.6302307,73.2361126 L66.3721367,73.2361126 L66.6318946,70.6694028 L68.5641045,70.6694028 L68.5641045,73.2361126 Z M73.1711263,81.4672192 L75.5853469,81.4672192 L75.5853469,73.322083 L73.1711263,73.322083 L73.1711263,81.4672192 Z M72.9627643,70.8407923 C72.9627643,70.6010674 73.0030477,70.3957857 73.0836143,70.2249473 C73.1641809,70.0541088 73.2739182,69.910825 73.4114371,69.7964734 C73.5503451,69.6821219 73.7045329,69.5994581 73.8767788,69.5484821 C74.0504138,69.4975061 74.228216,69.4713293 74.4129636,69.4713293 C74.7574553,69.4837288 75.0727764,69.6022136 75.361705,69.8309166 C75.6492445,70.0596197 75.7923197,70.3957857 75.7923197,70.8407923 C75.7923197,71.2968207 75.6520227,71.6398754 75.3700395,71.8672007 C75.0880563,72.0959038 74.7741243,72.2157662 74.4296325,72.2267881 C74.246274,72.2267881 74.0670827,72.2006112 73.8948368,72.1496352 C73.722591,72.0986592 73.567014,72.01324 73.4294951,71.8933776 C73.2919762,71.7735151 73.1794608,71.6274758 73.0933378,71.4566373 C73.0058258,71.2857989 72.9627643,71.0805172 72.9627643,70.8407923 Z M86.1601329,77.3089563 C86.1601329,78.0281311 86.0337267,78.6577534 85.7809142,79.1992011 C85.5267126,79.7406487 85.1975007,80.192544 84.7891113,80.5507536 C84.3807218,80.910341 83.9153801,81.1817537 83.390308,81.3649917 C82.868014,81.546852 82.3304402,81.6377821 81.7789755,81.6377821 C81.2261218,81.6377821 80.6857698,81.546852 80.1565304,81.3649917 C79.627291,81.1817537 79.1536148,80.910341 78.7327237,80.5507536 C78.3132216,80.192544 77.9770643,79.7406487 77.7242518,79.1992011 C77.4700502,78.6577534 77.345033,78.0281311 77.345033,77.3089563 C77.345033,76.5897816 77.4672721,75.9629147 77.7145283,75.4269779 C77.9631735,74.8910412 78.2909963,74.4432792 78.6979967,74.0836918 C79.1063861,73.7241044 79.5731169,73.4499362 80.0954109,73.262565 C80.6190939,73.0738161 81.1566678,72.9787528 81.7095215,72.9787528 C82.2609862,72.9787528 82.8055054,73.0683052 83.338912,73.2446546 C83.8750968,73.4223817 84.3515512,73.6896612 84.7710532,74.0492485 C85.1919444,74.4088359 85.5267126,74.8593534 85.7809142,75.4008011 C86.0337267,75.9422487 86.1601329,76.5787597 86.1601329,77.3089563 Z M93.9241162,81.4668059 L93.9241162,76.6929735 C93.9463415,76.1225935 93.8004881,75.6858533 93.483778,75.3841306 C93.1670678,75.0810301 92.7906272,74.9294799 92.3544561,74.9294799 C92.1238689,74.9294799 91.9030052,74.9708117 91.689087,75.0493423 C91.4765578,75.1292506 91.2904211,75.2463576 91.1292878,75.4006633 C90.9681546,75.554969 90.8389702,75.7464734 90.7403455,75.9737987 C90.6431099,76.2025018 90.5944921,76.4587595 90.5944921,76.7439495 L90.5944921,81.4668059 L88.1788825,81.4668059 L88.1788825,75.7685171 C88.1788825,75.5632354 88.1761043,75.3923969 88.170548,75.2560017 C88.1636026,75.1182288 88.135821,75.0066327 88.0844251,74.9212135 C88.0316401,74.8357943 87.9510734,74.7765519 87.8427252,74.7421087 C87.7329879,74.7076654 87.5815782,74.6911327 87.385718,74.6911327 L87.385718,73.2018072 C87.6621448,73.1563421 87.9746878,73.1191434 88.3247359,73.0915888 C88.676173,73.0626565 89.006774,73.0764338 89.3179279,73.1342984 C89.6276927,73.1907853 89.8902287,73.3078923 90.1027579,73.4842417 C90.3152871,73.6619688 90.4208572,73.9375147 90.4208572,74.3150125 C90.5361508,74.0752876 90.6945059,73.8713837 90.8959224,73.7060561 C91.097339,73.5421063 91.3182027,73.4112221 91.5599025,73.3134033 C91.8016024,73.2169622 92.0544149,73.1453203 92.3197291,73.0998552 C92.5836543,73.0543901 92.8364668,73.0309687 93.0781667,73.0309687 C93.6657474,73.0309687 94.1658161,73.1246543 94.5797619,73.3134033 C94.9937076,73.5021522 95.3326431,73.7611653 95.5979573,74.0918204 C95.8618824,74.4224754 96.0549645,74.8109951 96.1744254,75.2560017 C96.2952753,75.7010083 96.3563948,76.1790804 96.3563948,76.6929735 L96.3563948,81.4668059 L93.9241162,81.4668059 Z M103.827282,80.2005348 C103.699487,80.4636811 103.530019,80.6827401 103.31749,80.8590894 C103.104961,81.0368165 102.866039,81.1814781 102.602114,81.2958297 C102.3368,81.4101812 102.061762,81.492845 101.774222,81.543821 C101.486683,81.594797 101.210256,81.6209738 100.946331,81.6209738 C100.55461,81.6209738 100.180948,81.5603537 99.8239545,81.4404913 C99.4683501,81.3220065 99.1516399,81.1511681 98.8752131,80.9279759 C98.6001753,80.7047838 98.3751444,80.4347488 98.2028985,80.1151156 C98.0292635,79.7954823 97.9375843,79.435895 97.9264716,79.0377312 C97.9028573,78.5348599 97.9723112,78.0953643 98.1334445,77.7192441 C98.2945777,77.343124 98.5223868,77.0317572 98.8154826,76.7865213 C99.1085785,76.5412855 99.4558484,76.3594252 99.8586815,76.2395628 C100.261515,76.1197003 100.693518,76.0590802 101.153304,76.0590802 C101.520021,76.0590802 101.903407,76.0990344 102.300684,76.1789427 C102.696571,76.258851 103.050787,76.3966239 103.360551,76.5908837 L103.360551,76.024637 C103.360551,75.7752679 103.292487,75.5727417 103.154968,75.418436 C103.01606,75.2641303 102.843814,75.1442679 102.636841,75.0588486 C102.429868,74.9734294 102.204837,74.9155648 101.964526,74.8866325 C101.721437,74.8590779 101.497796,74.8439229 101.290823,74.8439229 C100.853263,74.8439229 100.433761,74.8783661 100.030927,74.9472526 C99.6294834,75.016139 99.2488755,75.1470233 98.8932711,75.3412832 L98.5821172,73.6301433 C99.0182883,73.4248616 99.5086334,73.2705559 100.048985,73.1686039 C100.589337,73.0652742 101.140802,73.0142982 101.704768,73.0142982 C102.234008,73.0142982 102.739633,73.0625187 103.223033,73.1589598 C103.706432,73.2567786 104.128713,73.4248616 104.491262,73.6632088 C104.852423,73.9029337 105.141352,74.2198114 105.353881,74.6138421 C105.56641,75.0064949 105.673369,75.5010998 105.673369,76.0935234 L105.673369,79.0707967 C105.673369,79.2416351 105.676147,79.3959408 105.681704,79.532336 C105.68726,79.670109 105.713653,79.787216 105.759492,79.883657 C105.805332,79.9814758 105.881731,80.0503623 105.991468,80.0889387 C106.101206,80.1302706 106.254005,80.1440479 106.449865,80.1316483 L106.466534,81.4666681 C106.15538,81.5355546 105.842837,81.5782642 105.526127,81.594797 C105.209417,81.6113297 104.924655,81.5782642 104.671843,81.492845 C104.41903,81.4074258 104.214836,81.2613864 104.059259,81.0561048 C103.903682,80.8508231 103.827282,80.5656331 103.827282,80.2005348 Z M110.3479,68.9415923 L110.3479,78.3349514 C110.3479,78.9742178 110.477085,79.3792703 110.735454,79.5501087 C110.995211,79.7209472 111.417492,79.7622791 112.003683,79.6699712 L112.089806,81.4665303 C111.446662,81.5808819 110.870194,81.620836 110.359013,81.5863928 C109.849221,81.5519496 109.419995,81.4183098 109.071336,81.1840958 C108.724066,80.9512595 108.455974,80.602694 108.267059,80.1411547 C108.078144,79.6782376 107.985076,79.0775476 107.985076,78.3349514 L107.985076,68.9415923 L110.3479,68.9415923 Z M115.281495,78.951072 C115.292607,79.2941266 115.435683,79.5448734 115.712109,79.70469 C115.988536,79.8645066 116.29969,79.938904 116.644182,79.9265044 C117.001175,79.9265044 117.32622,79.8617511 117.619316,79.7294891 C117.912412,79.5986048 118.06521,79.3506135 118.076323,78.9855152 C118.076323,78.8146768 118.041596,78.681037 117.972142,78.5832182 C117.904077,78.4867772 117.811009,78.4096243 117.697104,78.3517597 C117.581811,78.2952728 117.455404,78.2553186 117.317886,78.2318972 C117.178978,78.2098536 117.035902,78.1878099 116.885882,78.1643885 C116.471936,78.1079016 116.037154,78.0417706 115.582925,77.9673732 C115.128696,77.8943535 114.711972,77.7744911 114.332753,77.6077858 C113.953535,77.4424583 113.642381,77.2123775 113.400681,76.9147879 C113.158981,76.6185761 113.038131,76.2190346 113.038131,75.7175411 C113.038131,75.2615126 113.127032,74.8619711 113.306223,74.5202942 C113.484026,74.1772396 113.73406,73.8920496 114.056326,73.6633465 C114.378593,73.4360212 114.757812,73.2679382 115.195372,73.1590976 C115.631543,73.0516347 116.10383,72.9965255 116.609455,72.9965255 C117.103967,72.9965255 117.576254,73.0516347 118.024927,73.1590976 C118.4736,73.2679382 118.861153,73.4332657 119.188976,73.6550802 C119.516799,73.8782723 119.775168,74.1551959 119.965472,74.485851 C120.154386,74.816506 120.237731,75.1981371 120.215506,75.6321219 L117.937415,75.6321219 C117.926303,75.33591 117.79434,75.1209842 117.541527,74.9901 C117.288715,74.8592157 116.990063,74.7930846 116.644182,74.7930846 C116.29969,74.7930846 115.999649,74.867482 115.746836,75.0148991 C115.494024,75.1636939 115.367618,75.3758642 115.367618,75.6486546 C115.367618,75.8084712 115.405123,75.9338446 115.480133,76.0247747 C115.553754,76.1170826 115.649601,76.1873468 115.764894,76.2397005 C115.880188,76.2906765 116.006594,76.3278752 116.144113,76.3499189 C116.281632,76.3733403 116.42054,76.389873 116.558059,76.4022726 C117.017844,76.4587595 117.485964,76.5221351 117.963808,76.5896438 C118.441651,76.6585303 118.869488,76.7783927 119.250095,76.9492312 C119.629314,77.1200696 119.933523,77.3653054 120.16411,77.6849387 C120.393308,78.0045719 120.503045,78.4371789 120.491933,78.9855152 C120.48082,79.4759869 120.365526,79.8920612 120.146052,80.2351158 C119.927966,80.5767927 119.645983,80.8564718 119.301491,81.0727753 C118.955611,81.2904565 118.562501,81.4475177 118.119385,81.5439587 C117.676268,81.6403998 117.219261,81.6886203 116.746974,81.6886203 C116.276076,81.6886203 115.813512,81.6486662 115.359283,81.5687579 C114.905054,81.4888496 114.496665,81.3469434 114.134115,81.1416618 C113.771565,80.9363801 113.475691,80.656701 113.245104,80.3026245 C113.014517,79.9499258 112.889499,79.4980306 112.865885,78.951072 L115.281495,78.951072 Z M115.860463,57.7037291 C115.860463,57.2325456 115.817402,56.7558513 115.871576,56.2901787 C115.934084,55.7473533 115.706275,55.5324275 115.203428,55.4001655 C113.557369,54.9689362 111.927978,54.7856982 110.334704,55.5599821 C109.152597,56.1344953 108.613634,57.1788142 108.784491,58.4656135 C108.935901,59.598107 109.780461,60.4715875 111.001462,60.7292229 C112.459996,61.0378343 113.815738,60.7113124 115.143698,60.0968451 C115.700719,59.8392097 115.959088,59.5195765 115.871576,58.8995982 C115.816013,58.5083231 115.860463,58.1032706 115.860463,57.7037291 Z M43.4219005,55.6256998 C43.0912995,55.5223701 42.785702,55.4135295 42.4703809,55.3322435 C40.9312806,54.9340797 39.3991256,54.8376386 37.9197557,55.548547 C36.7445943,56.113416 36.2056314,57.1274249 36.3528738,58.3921805 C36.4917818,59.5825387 37.2960589,60.4546414 38.5503979,60.7246764 C40.2367407,61.0883969 41.7716738,60.6406349 43.2177058,59.8002199 C43.3177195,59.7423553 43.4121769,59.5797832 43.413566,59.464054 C43.4274568,58.1951652 43.4219005,56.9262764 43.4219005,55.6256998 Z M78.3266957,55.0923808 C78.3266957,56.3461145 78.3211394,57.5984706 78.332252,58.8522043 C78.3350302,59.0381978 78.3642008,59.2655231 78.4725491,59.4019184 C80.4769911,61.9162745 84.5914452,61.6131741 85.9916376,58.7736738 C87.1431847,56.4370447 87.2168059,53.9433545 86.226392,51.5350835 C84.7873055,48.0411617 80.6339571,48.3180853 78.7795357,50.3337034 C78.4878289,50.6505812 78.3016922,50.9743476 78.314194,51.4427756 C78.35031,52.6579329 78.3266957,53.8758457 78.3266957,55.0923808 Z M14.0098043,54.413298 C14.0098043,53.3620904 14.0167497,52.3095051 14.004248,51.2582976 C14.0014699,51.0695487 13.9736883,50.8449788 13.8681182,50.7016949 C12.8457555,49.3074328 11.4677884,48.6061685 9.717548,48.7659851 C7.99231098,48.9230463 6.79770243,49.8543913 6.16150391,51.4332692 C5.44751694,53.2105402 5.37806295,55.0360316 6.01703962,56.851879 C6.70602316,58.8082548 8.33680276,59.8732396 10.4079206,59.7368444 C11.6997648,59.6514252 12.7915814,59.0893116 13.7139303,58.2089425 C13.8722854,58.0573922 13.9903572,57.7873573 13.9973026,57.5682983 C14.0264733,56.5170908 14.0098043,55.4645055 14.0098043,54.413298 Z M103.309156,78.0788315 C103.067456,77.9190149 102.795196,77.7991524 102.489598,77.7192441 C102.18539,77.6393358 101.88396,77.5993817 101.583919,77.5993817 C101.2047,77.6228031 100.882433,77.7426655 100.618508,77.958969 C100.353194,78.1752726 100.243457,78.483884 100.289296,78.8834255 C100.312911,79.1796373 100.439317,79.4014517 100.669904,79.5502465 C100.900491,79.6990413 101.153304,79.7734387 101.428342,79.7734387 C101.624202,79.7734387 101.828397,79.7472618 102.042315,79.6962858 C102.253455,79.6439321 102.452093,79.5667793 102.636841,79.4648273 C102.820199,79.3614976 102.972998,79.2306133 103.093848,79.0707967 C103.214698,78.9123578 103.285541,78.7236089 103.309156,78.5059276 L103.309156,78.0788315 Z M79.7425846,77.3089563 C79.7425846,77.6850764 79.7995369,78.012976 79.9148305,78.2926551 C80.0301241,78.5723342 80.1801448,78.8065482 80.3635033,78.9939194 C80.5468618,79.1826683 80.7580019,79.321819 80.9927564,79.4127491 C81.2288999,79.505057 81.473378,79.5505221 81.7261905,79.5505221 C81.979003,79.5505221 82.2290373,79.505057 82.4762935,79.4127491 C82.7249388,79.321819 82.9430243,79.1826683 83.1319392,78.9939194 C83.3222431,78.8065482 83.4750418,78.5723342 83.5903355,78.2926551 C83.70424,78.012976 83.7625814,77.6850764 83.7625814,77.3089563 C83.7625814,76.943858 83.7070182,76.6214693 83.5986699,76.3417903 C83.4889326,76.0621112 83.3416902,75.8292749 83.1583317,75.640526 C82.9749732,75.4517771 82.762444,75.3126264 82.5207441,75.2203185 C82.2776551,75.1293884 82.0303989,75.0839233 81.7789755,75.0839233 C81.5247739,75.0839233 81.2747396,75.1293884 81.0274834,75.2203185 C80.7802272,75.3126264 80.5621417,75.4517771 80.3718378,75.640526 C80.1829229,75.8292749 80.0301241,76.0593557 79.9148305,76.3335239 C79.7995369,76.607692 79.7425846,76.9328362 79.7425846,77.3089563 Z" id="Combined-Shape" fill="#FFFFFF"></path>
            </g>
        </g>
    </g>
</svg>